<svg width="54" height="54" viewBox="0 0 54 54" fill="none" xmlns="http://www.w3.org/2000/svg">
<path d="M19.0358 51.9994C25.9463 51.9994 31.5482 46.3974 31.5482 39.487C31.5482 32.5766 25.9463 26.9746 19.0358 26.9746C12.1254 26.9746 6.52344 32.5766 6.52344 39.487C6.52344 46.3974 12.1254 51.9994 19.0358 51.9994Z" fill="#FB6A63"/>
<path d="M52.403 26.2795C52.4049 29.2959 51.2546 32.1991 49.1873 34.3956C47.12 36.5921 44.2918 37.916 41.2808 38.0968C41.2769 35.1142 40.3138 32.2119 38.5338 29.8186C36.7539 27.4253 34.2514 25.6678 31.396 24.8059C28.7767 24.009 25.9796 24.009 23.3603 24.8059C20.5049 25.6678 18.0025 27.4253 16.2225 29.8186C14.4425 32.2119 13.4795 35.1142 13.4755 38.0968H12.7804C10.015 38.189 7.32619 37.1788 5.30556 35.2886C3.28494 33.3983 2.09798 30.7828 2.0058 28.0174C1.91362 25.252 2.92377 22.5632 4.81403 20.5426C6.70429 18.5219 9.31982 17.335 12.0852 17.2428V17.2428C12.0978 13.4239 13.5387 9.74785 16.1246 6.93764C18.7105 4.12743 22.2543 2.38643 26.059 2.05703C29.8637 1.72762 33.654 2.83366 36.6844 5.15761C39.7148 7.48157 41.7661 10.8553 42.4348 14.6152C45.2125 15.0552 47.7422 16.4715 49.5694 18.6096C51.3965 20.7476 52.4012 23.4671 52.403 26.2795Z" stroke="#12141D" stroke-width="2.5" stroke-linecap="round" stroke-linejoin="round"/>
<path d="M41.2811 38.0974C41.2848 38.9228 41.2103 39.7468 41.0586 40.5582C41.0586 40.9057 40.9196 41.2394 40.8362 41.5731C40.5847 42.5722 40.216 43.5382 39.7379 44.4509C39.4377 45.0293 39.0986 45.5867 38.723 46.1192L38.5006 46.439C38.3198 46.6892 38.1252 46.9256 37.9444 47.148C37.2795 47.9164 36.5337 48.6109 35.72 49.2195C33.3164 51.0298 30.3875 52.0061 27.3784 52.0001C25.4276 52.0049 23.4983 51.5925 21.72 50.7905C20.7697 50.3688 19.8697 49.8419 19.0368 49.2195C18.2188 48.6211 17.4765 47.9255 16.8263 47.148C16.6243 46.9216 16.4341 46.6849 16.2563 46.439C15.7845 45.8124 15.3659 45.1474 15.005 44.4509C14.5269 43.5382 14.1582 42.5722 13.9067 41.5731C13.6149 40.4377 13.4701 39.2696 13.4757 38.0974C13.4731 37.5768 13.5056 37.0565 13.5731 36.5403C13.8389 34.0781 14.766 31.7337 16.2563 29.7558C16.437 29.5194 16.6178 29.297 16.8124 29.0746C17.4686 28.2896 18.2152 27.5849 19.0368 26.9753C20.3299 25.9789 21.7957 25.2295 23.3605 24.7647L24.3754 24.4867C26.3547 24.0604 28.4021 24.0604 30.3814 24.4867L31.3963 24.7647C32.9588 25.2353 34.4236 25.9842 35.72 26.9753C36.5376 27.5637 37.2799 28.25 37.9305 29.0189C38.1333 29.2544 38.3235 29.5004 38.5006 29.7558C40.3054 32.1623 41.2811 35.0893 41.2811 38.0974Z" stroke="#12141D" stroke-width="2.5" stroke-linecap="round" stroke-linejoin="round"/>
<path d="M23.5269 43.8658C23.7355 44.0187 23.9718 44.1438 24.1943 44.2828C24.6386 44.5091 25.1043 44.6908 25.5845 44.825L26.0989 44.9363C26.52 45.0198 26.9488 45.0571 27.378 45.0475V45.0475M20.4266 38.0962C20.406 37.8371 20.406 37.5767 20.4266 37.3176C20.5721 36.0812 21.0528 34.9082 21.8169 33.9254C21.8981 33.8089 21.9863 33.6974 22.0811 33.5917C22.4173 33.2 22.7949 32.8457 23.2072 32.5351C23.8493 32.0323 24.5803 31.655 25.3621 31.4229L25.8765 31.2838C26.3712 31.1881 26.8741 31.1415 27.378 31.1448L20.4266 38.0962ZM34.3293 38.0962C34.3349 38.5067 34.2977 38.9168 34.2181 39.3196C34.2181 39.5003 34.1486 39.6672 34.1069 39.834C33.9726 40.3142 33.791 40.7799 33.5647 41.2243C33.3978 41.5023 33.231 41.7943 33.0503 42.0445L32.939 42.267L32.661 42.6284C32.3288 43.0109 31.9559 43.3558 31.5488 43.6572C30.3484 44.5651 28.883 45.0536 27.378 45.0475L34.3293 38.0962ZM27.378 31.1448C27.6371 31.1236 27.8974 31.1236 28.1565 31.1448C29.2572 31.2639 30.3121 31.6505 31.229 32.2709L27.378 31.1448Z" stroke="#12141D" stroke-width="2.5" stroke-linecap="round" stroke-linejoin="round"/>
<path d="M34.3287 35.3164L32.9385 36.7067H35.719L34.3287 35.3164Z" stroke="#12141D" stroke-width="2.5" stroke-linecap="round" stroke-linejoin="round"/>
<path d="M20.4264 40.8776L21.8167 39.4873H19.0361L20.4264 40.8776Z" stroke="#12141D" stroke-width="2.5" stroke-linecap="round" stroke-linejoin="round"/>
</svg>
