<svg width="47" height="49" viewBox="0 0 47 49" fill="none" xmlns="http://www.w3.org/2000/svg">
<path d="M35 45C41.2132 45 46.25 39.9632 46.25 33.75C46.25 27.5368 41.2132 22.5 35 22.5C28.7868 22.5 23.75 27.5368 23.75 33.75C23.75 39.9632 28.7868 45 35 45Z" fill="#61A3F2"/>
<path d="M42.8985 7.32684C35.7698 7.32684 26.3856 4.92118 23.0439 0.463142C22.5975 -0.0789262 21.796 -0.156311 21.2539 0.290054C21.1907 0.342018 21.1328 0.399963 21.0808 0.463142C17.7387 4.92118 8.35495 7.32684 1.22582 7.32684C0.548797 7.32684 0 7.87564 0 8.55266V24.4865C0 37.9641 11.7038 46.0888 21.7246 48.9521C21.9452 49.016 22.1792 49.016 22.3997 48.9521C32.4205 46.0888 44.1243 37.9641 44.1243 24.4865V8.55266C44.1243 7.87564 43.5755 7.32684 42.8985 7.32684ZM41.6731 24.4865C41.6731 36.4508 31.1876 43.786 22.0622 46.4982C12.9367 43.786 2.45127 36.4508 2.45127 24.4865V9.7568C9.53479 9.51717 17.9133 7.23338 22.0622 3.06096C26.2107 7.23338 34.5892 9.51717 41.6731 9.7568V24.4865Z" fill="#12141D"/>
<path d="M19.2517 23.6197C18.7814 23.1325 18.0057 23.1191 17.5186 23.5894C17.0319 24.0597 17.0184 24.8354 17.4883 25.3225C17.4984 25.3326 17.5085 25.3427 17.5186 25.3524L19.9699 27.8041C20.4484 28.2826 21.2241 28.2829 21.7026 27.8044L21.703 27.8041L26.6059 22.9011C27.0926 22.4309 27.1061 21.6551 26.6358 21.168C26.1659 20.6813 25.3898 20.6678 24.9031 21.1377C24.8926 21.1478 24.8825 21.1579 24.8728 21.168L20.8364 25.204L19.2517 23.6197Z" fill="#12141D"/>
<path d="M9.80566 24.4866C9.80566 31.2557 15.2933 36.7433 22.0624 36.7433C28.8319 36.7433 34.3191 31.2557 34.3191 24.4866C34.3191 17.7171 28.8319 12.2295 22.0624 12.2295C15.2966 12.2377 9.81351 17.7205 9.80566 24.4866ZM31.8678 24.4866C31.8678 29.9017 27.4778 34.2917 22.0624 34.2917C16.6473 34.2917 12.2573 29.9017 12.2573 24.4866C12.2573 19.0711 16.6473 14.6811 22.0624 14.6811C27.4756 14.6864 31.8626 19.0734 31.8678 24.4866Z" fill="#12141D"/>
</svg>
