<svg width="581" height="542" viewBox="0 0 581 542" fill="none" xmlns="http://www.w3.org/2000/svg">
<path d="M187.992 35.7992L276.817 0L365.641 35.7992L276.817 73.4825L187.992 35.7992Z" fill="#D7F890"/>
<path d="M188.558 35.9863L277.948 73.6697V311.829L188.558 272.262V35.9863Z" fill="url(#paint0_linear_46_2240)"/>
<path d="M366.207 35.5156L276.817 73.199L277.948 312.3L366.207 278.385V35.5156Z" fill="#AED659"/>
<path d="M59 195.034L148.896 155.02L238.793 195.034L148.896 237.155L59 195.034Z" fill="#515258"/>
<path d="M59.5723 195.244L150.041 237.365V503.568L59.5723 459.342V195.244Z" fill="url(#paint1_linear_46_2240)"/>
<path d="M239.365 194.718L148.896 236.838L150.041 504.095L239.365 466.186V194.718Z" fill="url(#paint2_linear_46_2240)"/>
<path d="M352 175.479L441.896 133L531.793 175.479L441.896 220.194L352 175.479Z" fill="#E7E5E3"/>
<path d="M352.572 175.702L443.041 220.417V503.016L352.572 456.065V175.702Z" fill="url(#paint3_linear_46_2240)"/>
<path d="M532.365 175.143L441.896 219.857L443.041 503.574L532.365 463.331V175.143Z" fill="#D6D2CD"/>
<path d="M204.966 293.55L294.862 261.383L384.759 293.55L294.862 327.411L204.966 293.55Z" fill="#FF8E5E"/>
<path d="M205.538 293.718L296.007 327.578V541.576L205.538 506.023V293.718Z" fill="url(#paint4_linear_46_2240)"/>
<path d="M385.331 293.295L294.862 327.155L296.007 542L385.331 511.526V293.295Z" fill="#F2723C"/>
<path d="M112.2 45.9335C109.287 45.9335 106.477 46.374 103.826 47.1719C103.847 46.7563 103.888 46.3532 103.888 45.9335C103.888 32.1662 92.7225 21.0002 78.9552 21.0002C67.4484 21.0002 57.7909 28.8043 54.9152 39.3968C52.0645 38.2624 48.9645 37.6224 45.7107 37.6224C31.9392 37.6224 20.7773 48.7842 20.7773 62.5558C20.7773 76.319 31.9392 87.4891 45.7107 87.4891C57.2174 87.4891 66.8749 79.685 69.7506 69.0883C72.6013 70.2228 75.7013 70.8669 78.9552 70.8669C80.5135 70.8669 82.0303 70.7048 83.5096 70.4347C83.2686 71.9307 83.1107 73.4558 83.1107 75.0224C83.1107 91.0837 96.1384 104.111 112.2 104.111C128.261 104.111 141.289 91.0837 141.289 75.0224C141.289 58.957 128.261 45.9335 112.2 45.9335Z" fill="#B4C3CC"/>
<path d="M128.822 104.111C126.882 104.111 125.041 104.465 123.258 104.959C124.156 102.773 124.667 100.388 124.667 97.8781C124.667 87.5515 116.293 79.1781 105.967 79.1781C101.732 79.1781 97.8758 80.6367 94.7426 83.0053C91.8087 71.2659 81.2162 62.5558 68.5667 62.5558C56.7732 62.5558 46.7708 70.1273 43.089 80.6616C39.9806 79.6975 36.6728 79.1781 33.2445 79.1781C14.8852 79.1781 0 94.0633 0 112.423C0 130.786 14.8852 145.667 33.2445 145.667H128.822C140.3 145.667 149.6 136.367 149.6 124.889C149.6 113.412 140.3 104.111 128.822 104.111Z" fill="#8899A6"/>
<path d="M563.5 314C561.866 314 560.315 314.297 558.814 314.714C559.57 312.873 560 310.864 560 308.75C560 300.052 552.948 293 544.25 293C540.684 293 537.436 294.228 534.797 296.223C532.326 286.336 523.404 279 512.75 279C502.817 279 494.393 285.377 491.292 294.249C488.674 293.437 485.888 293 483 293C467.537 293 455 305.537 455 321C455 336.466 467.537 349 483 349H563.5C573.167 349 581 341.167 581 331.5C581 321.833 573.167 314 563.5 314Z" fill="#8899A6"/>
<defs>
<linearGradient id="paint0_linear_46_2240" x1="233.253" y1="35.9863" x2="233.253" y2="311.829" gradientUnits="userSpaceOnUse">
<stop stop-color="#8AAE3D"/>
<stop offset="1" stop-color="#AED659"/>
</linearGradient>
<linearGradient id="paint1_linear_46_2240" x1="104.807" y1="195.244" x2="104.807" y2="503.568" gradientUnits="userSpaceOnUse">
<stop stop-color="#17181A"/>
<stop offset="1" stop-color="#636675"/>
</linearGradient>
<linearGradient id="paint2_linear_46_2240" x1="194.131" y1="194.718" x2="194.131" y2="504.095" gradientUnits="userSpaceOnUse">
<stop stop-color="#40414A"/>
<stop offset="1" stop-color="#313238"/>
</linearGradient>
<linearGradient id="paint3_linear_46_2240" x1="397.807" y1="175.702" x2="397.807" y2="503.016" gradientUnits="userSpaceOnUse">
<stop stop-color="#BEBEBE"/>
<stop offset="1" stop-color="#D6D2CD"/>
</linearGradient>
<linearGradient id="paint4_linear_46_2240" x1="250.773" y1="293.718" x2="250.773" y2="541.576" gradientUnits="userSpaceOnUse">
<stop stop-color="#DF561C"/>
<stop offset="1" stop-color="#F2723C"/>
</linearGradient>
</defs>
</svg>
